<svg width="73" height="28" viewBox="0 0 73 28" fill="none" xmlns="http://www.w3.org/2000/svg">
    <path class="primary"
          d="M31.7699 15.278C31.7699 18.401 33.2665 20.2055 35.8168 20.2055C37.8716 20.2055 39.1516 19.017 39.5702 16.7217H42.0917C41.5431 20.2874 39.1852 22.4479 35.812 22.4479C31.9239 22.4479 29.2292 19.5704 29.2292 15.278C29.2292 10.9857 31.9239 8.10815 35.812 8.10815C39.1852 8.10815 41.5431 10.2687 42.0917 13.8344H39.5702C39.1516 11.5391 37.8716 10.3506 35.8168 10.3506C33.2665 10.3506 31.7699 12.1551 31.7699 15.278Z"
          fill="#301934"/>
    <path class="primary"
          d="M51.1695 18.6031H53.4986C52.9356 20.9995 51.0492 22.4479 48.5133 22.4479C45.3566 22.4479 43.2297 20.1911 43.2297 16.842C43.2297 13.5024 45.3326 11.26 48.4556 11.26C51.5449 11.26 53.5467 13.4447 53.5467 16.8179C53.5467 17.0681 53.5371 17.3135 53.513 17.5878H45.6165C45.8186 19.3538 46.9109 20.4125 48.5807 20.4125C49.8462 20.4125 50.698 19.8013 51.1695 18.6031ZM45.6502 15.8555H51.1551C50.9001 14.1761 49.9714 13.2763 48.47 13.2763C46.9302 13.2763 45.9148 14.229 45.6502 15.8555Z"
          fill="#301934"/>
    <path class="primary"
          d="M57.1169 17.1066V22.1592H54.7013V11.5487H57.1169V15.0808C57.5548 12.8913 58.7867 11.5487 60.9424 11.5487H61.5006V13.8296H60.7067C57.9734 13.8296 57.1169 14.8787 57.1169 17.1066Z"
          fill="#301934"/>
    <path class="primary"
          d="M70.0041 18.6031H72.3331C71.7701 20.9995 69.8838 22.4479 67.3478 22.4479C64.1911 22.4479 62.0642 20.1911 62.0642 16.842C62.0642 13.5024 64.1671 11.26 67.2901 11.26C70.3794 11.26 72.3812 13.4447 72.3812 16.8179C72.3812 17.0681 72.3716 17.3135 72.3475 17.5878H64.451C64.6531 19.3538 65.7454 20.4125 67.4152 20.4125C68.6808 20.4125 69.5325 19.8013 70.0041 18.6031ZM64.4847 15.8555H69.9896C69.7346 14.1761 68.8059 13.2763 67.3045 13.2763C65.7647 13.2763 64.7493 14.229 64.4847 15.8555Z"
          fill="#301934"/>
    <path d="M13.9187 27.9647C9.17756 27.9647 4.72442 25.4257 2.30067 21.3359C1.94619 20.7333 1.63159 20.0997 1.37459 19.4527L0.997961 18.5001L1.83985 17.9196C3.10711 17.0467 3.82936 15.7928 3.82936 14.4723C3.82936 13.1519 3.10268 11.8979 1.83985 11.025L0.99353 10.4446L1.37459 9.4919C1.63159 8.84941 1.93733 8.22021 2.29181 7.61759C4.71556 3.52336 9.16869 0.97998 13.9187 0.97998C18.1237 0.97998 22.0141 2.88973 24.5974 6.22626L25.3861 7.24539L18.6421 12.4562L17.8578 11.4415C16.9096 10.2141 15.474 9.50962 13.9276 9.50962C13.2939 9.50962 12.678 9.62926 12.0931 9.85967C11.4639 10.1122 10.8968 10.4844 10.4138 10.9674L8.5971 9.15071C9.32821 8.4196 10.1834 7.85687 11.1405 7.4758C12.0267 7.12132 12.966 6.94408 13.9276 6.94408C15.8418 6.94408 17.6407 7.65304 19.0188 8.92473L21.7217 6.83774C19.6746 4.74188 16.8963 3.55881 13.9231 3.55881C10.077 3.55881 6.47466 5.61922 4.51173 8.93803C4.38323 9.15071 4.26803 9.37226 4.15282 9.59381C5.59732 10.9054 6.40376 12.6423 6.40376 14.4812C6.40376 16.32 5.59289 18.057 4.15282 19.373C4.26803 19.599 4.38766 19.8205 4.51616 20.0376C6.47909 23.3476 10.0815 25.408 13.9231 25.408C16.2981 25.408 18.5579 24.6547 20.4588 23.2368C20.9064 22.9001 21.3317 22.5323 21.7217 22.1335L19.0188 20.0465C17.6407 21.3182 15.8418 22.0271 13.9276 22.0271C11.9159 22.0271 10.0239 21.2429 8.60153 19.8205L10.4182 18.0038C11.3576 18.9432 12.6027 19.4616 13.9276 19.4616C15.474 19.4616 16.9052 18.7571 17.8578 17.5297L18.6421 16.515L25.3861 21.7258L24.5974 22.7405C23.8485 23.7065 22.9756 24.5661 21.9964 25.3016C19.648 27.0563 16.8564 27.9868 13.9231 27.9868L13.9187 27.9647Z"
          fill="#8B00EC"/>
</svg>
